<?xml version="1.0" encoding="UTF-8"?>
<svg width="187px" height="51px" viewBox="0 0 187 51" version="1.1" xmlns="http://www.w3.org/2000/svg" xmlns:xlink="http://www.w3.org/1999/xlink">
    <title>Aventus Logo</title>
    <defs>
        <linearGradient x1="13.8586957%" y1="100%" x2="93.2370924%" y2="100%" id="linearGradient-1">
            <stop stop-color="#F2F1F1" offset="0%"></stop>
            <stop stop-color="#1D2733" offset="100%"></stop>
        </linearGradient>
        <linearGradient x1="13.8586957%" y1="100%" x2="93.2370924%" y2="100%" id="linearGradient-2">
            <stop stop-color="#F2F1F1" offset="0%"></stop>
            <stop stop-color="#1D2733" offset="100%"></stop>
        </linearGradient>
    </defs>
    <g id="Page-1" stroke="none" stroke-width="1" fill="none" fill-rule="evenodd">
        <g id="Blockexplorer-1" transform="translate(-325.000000, -34.000000)">
            <g id="Group" transform="translate(325.000000, 34.000000)">
                <path d="M75.1631558,23.9281799 L67.9735077,41.3737113 L64,41.3737113 L75.2234164,15 L75.4674037,15 L86.6908202,41.3737113 L82.0202059,41.3737113 L75.1631558,23.9281799 Z M71.0407768,31.9445876 L79.7197541,31.9445876 L81.1139673,35.4239691 L69.8208402,35.4239691 L71.0407768,31.9445876 Z M95.2481124,35.058884 L98.9359161,26.6559278 L103.292832,26.6559278 L95.2063957,41.7564433 L95.032119,41.7564433 L86.5622737,26.6559278 L91.1980327,26.6559278 L95.2481124,35.058884 L95.2481124,35.058884 Z M108.627364,34.2750044 L116.360561,31.5283482 C116.122,30.8896338 115.731608,30.32671 115.189375,29.8395619 C114.60845,29.317652 113.806785,29.056701 112.784357,29.056701 C111.971062,29.056701 111.250726,29.253864 110.623327,29.6481959 C109.995928,30.0425277 109.502149,30.5818265 109.141975,31.2661082 C108.781802,31.95039 108.601717,32.7564387 108.601717,33.6842784 C108.601717,33.8869603 108.610266,34.0838689 108.627364,34.2750044 L108.627364,34.2750044 Z M109.390544,36.5279212 C109.760469,37.0814012 110.229486,37.5194706 110.797603,37.8421392 C111.471476,38.224873 112.238286,38.4162371 113.098055,38.4162371 C113.702217,38.4162371 114.277324,38.3118567 114.823394,38.1030928 C115.369464,37.8943289 115.898097,37.6159811 116.409312,37.2680412 L118.186933,40.1559278 C117.420112,40.6430437 116.577784,41.0315707 115.659922,41.3215206 C114.74206,41.6114705 113.864877,41.7564433 113.028344,41.7564433 C111.285569,41.7564433 109.798423,41.4201065 108.566862,40.7474227 C107.335301,40.0747389 106.394216,39.1469131 105.74358,37.9639175 C105.092944,36.7809219 104.767631,35.4239767 104.767631,33.8930412 C104.767631,32.4316937 105.139418,31.1037431 105.883002,29.9091495 C106.626586,28.7145559 107.631571,27.7635345 108.897988,27.0560567 C110.164404,26.3485789 111.564413,25.9948454 113.098055,25.9948454 C115.119674,25.9948454 116.786904,26.5805354 118.099795,27.751933 C119.412686,28.9233306 120.289869,30.5760203 120.731373,32.7100515 L109.390544,36.5279212 L109.390544,36.5279212 Z M128.253872,29.2974961 C128.742822,28.3266404 129.480486,27.5447075 130.466885,26.9516753 C131.489313,26.3369815 132.697619,26.0296392 134.091839,26.0296392 C135.486059,26.0296392 136.636274,26.435563 137.542517,27.2474227 C138.44876,28.0592824 138.913493,29.126282 138.93673,30.4484536 L138.93673,41.3737113 L135.032933,41.3737113 L135.032933,31.8402062 C135.009696,31.0979344 134.800566,30.5006466 134.405537,30.0483247 C134.010508,29.5960029 133.383118,29.3582475 132.523349,29.3350515 C131.733291,29.3350515 131.024573,29.5728069 130.397174,30.0483247 C129.769775,30.5238426 129.275996,31.1733206 128.915822,31.9967784 C128.555649,32.8202361 128.375565,33.7654586 128.375565,34.8324742 L128.375565,41.3737113 L124.471768,41.3737113 L124.471768,26.6559278 L127.992156,26.6559278 L128.253872,29.2974961 L128.253872,29.2974961 Z M145.639828,20.1842784 L149.543625,20.1842784 L149.543625,26.6559278 L153.377712,26.6559278 L153.377712,29.7177835 L149.543625,29.7177835 L149.543625,41.3737113 L145.639828,41.3737113 L145.639828,29.7177835 L143.095389,29.7177835 L143.095389,26.6559278 L145.639828,26.6559278 L145.639828,20.1842784 Z M167.527034,38.7247579 C167.228024,39.3340116 166.814036,39.8806509 166.285059,40.3646907 C165.727371,40.8750026 165.070935,41.2751274 164.315733,41.5650773 C163.56053,41.8550272 162.741438,42 161.858432,42 C160.510686,42 159.395326,41.5882773 158.51232,40.7648196 C157.629314,39.9413619 157.164581,38.8801611 157.118107,37.5811856 L157.118107,26.6559278 L161.021904,26.6559278 L161.021904,36.189433 C161.068378,36.9085087 161.277508,37.4999977 161.6493,37.9639175 C162.021092,38.4278374 162.613627,38.6597938 163.426922,38.6597938 C164.193743,38.6597938 164.873415,38.4220385 165.465959,37.9465206 C166.058502,37.4710028 166.529044,36.8157258 166.877599,35.9806701 C167.226154,35.1456144 167.400429,34.2061908 167.400429,33.1623711 L167.400429,26.6559278 L171.304226,26.6559278 L171.304226,41.3737113 L167.783838,41.3737113 L167.527034,38.7247579 L167.527034,38.7247579 Z M181.004883,41.6868557 C179.889507,41.6868557 178.82643,41.4896927 177.81562,41.0953608 C176.804811,40.701029 175.962482,40.1211378 175.288609,39.3556701 L176.926809,37.1636598 C177.577446,37.7899516 178.222263,38.2480656 178.86128,38.5380155 C179.500298,38.8279654 180.11026,38.9729381 180.691185,38.9729381 C181.132688,38.9729381 181.533521,38.9207479 181.893694,38.816366 C182.253868,38.711984 182.544326,38.5438156 182.765077,38.3118557 C182.985829,38.0798957 183.096203,37.7667545 183.096203,37.3724227 C183.096203,36.9085028 182.933546,36.5431714 182.608228,36.2764175 C182.28291,36.0096636 181.864651,35.789305 181.353436,35.6153351 C180.842222,35.4413651 180.296161,35.2731967 179.715236,35.1108247 C178.460438,34.6932969 177.519353,34.1076069 176.891954,33.3537371 C176.264555,32.5998674 175.95086,31.7242318 175.95086,30.7268041 C175.95086,29.9613364 176.148372,29.2248747 176.543401,28.5173969 C176.93843,27.8099191 177.542583,27.2242291 178.355878,26.7603093 C179.169173,26.2963894 180.191586,26.064433 181.423147,26.064433 C182.538523,26.064433 183.508654,26.192009 184.333567,26.4471649 C185.158481,26.7023209 185.9311,27.1082446 186.651447,27.6649485 L185.152667,30.0309278 C184.734401,29.6134 184.240623,29.2944599 183.671316,29.0740979 C183.102009,28.853736 182.584994,28.7319589 182.120254,28.7087629 C181.701988,28.6855669 181.330201,28.7377571 181.004883,28.8653351 C180.679565,28.992913 180.412344,29.1726793 180.203211,29.4046392 C179.994078,29.6365991 179.889513,29.903349 179.889513,30.2048969 C179.889513,30.6688168 180.057978,31.0399471 180.394915,31.318299 C180.731851,31.5966509 181.167539,31.8170095 181.70199,31.9793814 C182.236441,32.1417534 182.770884,32.3157207 183.305335,32.5012887 C184.025682,32.7100526 184.658881,32.9999981 185.20495,33.371134 C185.75102,33.7422699 186.186707,34.1887861 186.512025,34.7106959 C186.837343,35.2326057 187,35.8762848 187,36.6417526 C187,37.5232003 186.779252,38.3524446 186.337749,39.1295103 C185.896246,39.9065761 185.234001,40.5270595 184.350995,40.9909794 C183.467989,41.4548992 182.352629,41.6868557 181.004883,41.6868557 Z" id="Aventus" fill="#1D2733" fill-rule="nonzero"></path>
                <g id="Group-2">
                    <polygon id="Triangle" fill="url(#linearGradient-1)" points="34.1714905 35.7822581 48.7118424 42.3629032 2.0296601 42.3629032"></polygon>
                    <polygon id="Triangle" fill="url(#linearGradient-2)" points="21.9203291 -8.47925999e-14 21.9203291 11.9334975 0 39.0725806"></polygon>
                    <polygon id="Triangle" fill="#5100FF" transform="translate(30.444901, 32.080645) scale(1, -1) rotate(90.000000) translate(-30.444901, -32.080645) " points="49.3642563 12.5959082 40.2441571 32.2707402 11.5255467 51.5653821"></polygon>
                    <polygon id="Rectangle" fill="#1D2733" points="21.9203291 0 48.7118424 42.3629032 34.167878 35.8159091 21.9203291 11.9386364"></polygon>
                </g>
            </g>
        </g>
    </g>
</svg>