<svg xmlns="http://www.w3.org/2000/svg" viewBox="0 0 1030.4478 337.92"><svg viewBox="244.3127109111361 218.11199999999997 880.4476940382452 337.92" xmlns="http://www.w3.org/2000/svg" data-name="Layer 1" id="Layer_1" style="max-height: 500px" width="880.4477" height="337.92" x="0"><path d="M330.01,494.26v-170.2h-73.01v-31.06h185.29v31.06h-73.01v170.22h-39.25l-.02-.02Z" /><path d="M456.44,341.03h36.66v52.9h7.5c2.6-37.39,24.53-54.34,58.88-54.34h19.34v31.92h-21.35c-44.16,0-64.37,26.17-64.37,73.6v49.17h-36.66v-153.26Z" /><path d="M609.11,441.07v-100.06h36.66v93.16c0,23,13.28,35.37,32.32,35.37,27.13,0,44.44-24.16,44.44-66.43v-62.1h36.37v153.26h-36.37v-41.7h-7.79c-2.31,29.33-24.53,45.43-52.82,45.43-32.89,0-52.82-20.41-52.82-56.93h.02Z" /><path d="M828.76,435.03v-64.99h-41.56v-29.04h43v-43.7l34.93-18.69v62.4h60.9v29.04h-83.11v8.63h5.19c11.54.29,17.03,7.47,17.03,17.83v35.37c0,21.86,10.67,33.36,31.18,33.36h29.72v29.04h-38.97c-37.51,0-58.29-20.7-58.29-59.23Z" /><path d="M959.21,270h36.66v112.7h7.5c2.31-29.33,24.53-45.43,52.82-45.43,32.9,0,52.82,20.41,52.82,56.93v100.06h-36.37v-93.16c0-23-13.56-35.37-32.62-35.37-26.84,0-44.16,24.16-44.16,66.43v62.1h-36.66v-224.26Z" /></svg><svg xmlns="http://www.w3.org/2000/svg" xmlns:xlink="http://www.w3.org/1999/xlink" width="150" height="150" viewBox="0 0 576 576" version="1.1" x="880.4477"><g id="surface1"><rect x="0" y="0" width="576" height="576" style="fill:rgb(6.666667%,6.666667%,6.666667%);fill-opacity:1;stroke:none;" /><path style=" stroke:none;fill-rule:nonzero;fill:rgb(85.09804%,99.607843%,25.882354%);fill-opacity:1;" d="M 445.734375 172.558594 L 173.300781 172.558594 L 127.636719 93.457031 L 83.722656 172.558594 L 219.449219 407.640625 L 174.300781 482.894531 L 264.78125 482.894531 L 404.429688 250.140625 L 492.292969 250.140625 L 445.738281 172.550781 Z M 265.101562 331.546875 L 218.109375 250.140625 L 313.949219 250.140625 L 265.109375 331.546875 Z M 265.101562 331.546875 " /></g></svg></svg>
