<svg width="350" height="100" viewBox="0 0 350 100" fill="none" xmlns="http://www.w3.org/2000/svg">
<g clip-path="url(#clip0_524_70)">
<g clip-path="url(#clip1_524_70)">
<path d="M143.159 69.9953H142.779L132.606 40.6346H126.47L140.09 77.4794H145.847L159.474 40.6346H153.331L143.159 69.9953Z" fill="black"/>
<path d="M259.993 72.2C259.751 72.2458 259.43 72.3113 259.031 72.3898C258.632 72.4552 258.122 72.4879 257.494 72.4879C256.663 72.4879 255.872 72.3571 255.119 72.1019C254.387 71.8271 253.778 71.3038 253.294 70.5187C252.83 69.7206 252.601 68.5169 252.601 66.9206V45.4299H260.471V40.6346H252.601V31.8094H246.942V40.6346H241.374V45.4299H246.942V68.458C246.942 70.6038 247.439 72.3767 248.427 73.7832C249.434 75.1898 250.697 76.2365 252.215 76.9234C253.752 77.6103 255.316 77.9571 256.918 77.9571C257.972 77.9571 258.848 77.8785 259.535 77.715C260.222 77.5711 260.758 77.4271 261.144 77.2832L259.993 72.2Z" fill="black"/>
<path d="M292.213 62.4131C292.213 64.7159 291.709 66.6131 290.702 68.0981C289.707 69.5832 288.477 70.6888 287.005 71.4084C285.553 72.1281 284.12 72.4879 282.714 72.4879C280.365 72.4879 278.429 71.6897 276.911 70.0869C275.406 68.4907 274.654 66.3449 274.654 63.6561V40.6281H268.995V64.0421C268.995 67.1757 269.505 69.7729 270.532 71.8402C271.553 73.8879 272.966 75.4252 274.752 76.4458C276.545 77.4533 278.592 77.957 280.895 77.957C283.675 77.957 285.978 77.3094 287.803 76.014C289.629 74.7056 290.97 73.1094 291.833 71.2383H292.219V77.4729H297.878V40.6281H292.219V62.4066L292.213 62.4131Z" fill="black"/>
<path d="M332.584 60.9019C330.968 59.2533 328.515 58.03 325.217 57.2318L319.748 55.8907C317.57 55.3477 315.973 54.6673 314.953 53.8496C313.926 53.0318 313.415 51.9197 313.415 50.5131C313.415 48.93 314.161 47.6281 315.646 46.601C317.151 45.5608 319.029 45.044 321.286 45.044C322.934 45.044 324.282 45.3057 325.342 45.8356C326.395 46.3655 327.226 47.0328 327.834 47.8505C328.456 48.6486 328.927 49.4729 329.247 50.3234L334.33 48.8842C333.454 46.2608 331.962 44.1477 329.869 42.5514C327.788 40.9552 324.929 40.1505 321.279 40.1505C318.688 40.1505 316.372 40.6085 314.325 41.5178C312.297 42.4271 310.687 43.6832 309.503 45.286C308.339 46.8823 307.75 48.7271 307.75 50.801C307.75 53.3458 308.535 55.4655 310.099 57.1599C311.682 58.8412 314.161 60.0776 317.537 60.8757L323.68 62.315C325.538 62.7468 326.912 63.401 327.808 64.2842C328.704 65.1477 329.149 66.2206 329.149 67.4963C329.149 69.0795 328.364 70.4402 326.801 71.572C325.25 72.6907 323.157 73.2533 320.514 73.2533C318.198 73.2533 316.314 72.7561 314.874 71.7683C313.448 70.7739 312.486 69.2888 311.97 67.3066L306.599 68.6477C307.253 71.7814 308.816 74.1627 311.276 75.7982C313.736 77.4271 316.85 78.2449 320.605 78.2449C323.471 78.2449 325.976 77.7673 328.135 76.8057C330.294 75.844 331.975 74.5356 333.172 72.8739C334.389 71.2122 334.998 69.3215 334.998 67.215C334.998 64.6374 334.186 62.5374 332.577 60.9085L332.584 60.9019Z" fill="black"/>
<path d="M109.042 28.3552H102.899L84.8622 77.4795H91.0968L96.0361 63.5645H115.904L120.844 77.4795H127.078L109.042 28.3552ZM97.9136 58.2916L105.784 36.1271H106.17L114.04 58.2916H97.9136Z" fill="black"/>
<path d="M191.295 44.2328C189.758 42.7935 188.057 41.7533 186.186 41.1122C184.315 40.4711 182.417 40.1505 180.501 40.1505C177.177 40.1505 174.266 40.9683 171.767 42.5972C169.287 44.2131 167.351 46.4701 165.964 49.3617C164.59 52.2402 163.903 55.5636 163.903 59.3384C163.903 63.1131 164.59 66.4234 165.964 69.2692C167.358 72.1019 169.333 74.3066 171.891 75.8898C174.469 77.4599 177.53 78.2384 181.076 78.2384C183.569 78.2384 185.819 77.8524 187.815 77.087C189.816 76.3019 191.491 75.2159 192.852 73.8225C194.213 72.4159 195.181 70.787 195.757 68.929L190.287 67.3916C189.81 68.6739 189.129 69.7402 188.246 70.6038C187.37 71.4543 186.316 72.0888 185.106 72.5206C183.909 72.9393 182.561 73.1421 181.076 73.1421C178.793 73.1421 176.785 72.6449 175.058 71.6571C173.33 70.6496 171.976 69.1842 171.001 67.2673C170.131 65.5141 169.66 63.4075 169.582 60.9608H196.332V58.5599C196.332 55.1187 195.874 52.2271 194.965 49.8786C194.056 47.53 192.832 45.6393 191.295 44.2197V44.2328ZM169.588 56.0804C169.693 54.3729 170.125 52.7571 170.877 51.2328C171.76 49.4599 173.01 48.0206 174.645 46.915C176.294 45.7963 178.243 45.2337 180.501 45.2337C182.548 45.2337 184.321 45.7047 185.826 46.6468C187.343 47.5888 188.515 48.8776 189.326 50.5066C190.157 52.1356 190.575 53.9935 190.575 56.0739H169.595L169.588 56.0804Z" fill="black"/>
<path d="M232.549 46.2935C231.509 44.2328 230.057 42.6954 228.186 41.6879C226.315 40.6673 224.13 40.1505 221.637 40.1505C218.857 40.1505 216.587 40.7262 214.827 41.8776C213.067 43.0159 211.759 44.5141 210.895 46.3851H210.417V40.6281H204.948V77.4729H210.607V55.3085C210.607 53.1627 211.013 51.344 211.83 49.8393C212.648 48.3346 213.76 47.1898 215.167 46.4113C216.587 45.6262 218.202 45.2337 220.015 45.2337C222.638 45.2337 224.699 46.0514 226.203 47.6804C227.708 49.2963 228.46 51.5533 228.46 54.4449V77.4729H234.119V54.0589C234.119 50.9253 233.602 48.3346 232.562 46.287L232.549 46.2935Z" fill="black"/>
<path d="M76.8952 81.3059C74.1418 73.3522 71.3883 65.4362 68.6727 57.4825L53.9627 15H35.1037L15.5281 72.5229C15.1886 73.5407 15 74.5584 15 75.5762C15 80.5897 19.0735 85 24.4672 85C28.6916 85 32.4257 82.3236 33.7835 78.3279L44.7595 45.8724C45.4761 48.021 46.1928 50.1696 46.9094 52.2806C49.3611 59.2542 51.8504 66.2655 54.3021 73.2768C55.1696 75.727 56.0371 78.2149 56.9046 80.7028C57.395 82.0598 58.6774 83.0022 60.1484 83.0022H77.5364L76.9329 81.2682L76.8952 81.3059ZM31.2942 77.4987C30.3135 80.4389 27.5601 82.399 24.4672 82.399C20.5823 82.399 17.6403 79.1949 17.6403 75.5762C17.6403 74.86 17.7534 74.1061 18.0174 73.3522L36.9519 17.601H52.0768L55.2073 26.5347C55.2073 26.5347 54.9056 26.5347 54.7547 26.5347C53.4723 26.497 52.1522 26.8363 51.0961 27.364C48.7953 28.4949 47.1734 30.455 46.3813 32.8298L31.2942 77.5364V77.4987ZM60.1107 80.4389C59.7712 80.4389 59.4318 80.2127 59.3186 79.8735C58.4511 77.4233 57.5836 74.9354 56.7161 72.4852C54.2644 65.4739 51.8127 58.4626 49.3233 51.489C48.6067 49.2649 47.8523 47.0409 47.098 44.7792C46.7585 43.7991 46.4191 42.7814 46.1173 41.8013L48.8707 33.6591C49.4365 31.9251 50.6435 30.4927 52.2653 29.7011C53.0197 29.3242 53.8872 29.098 54.6793 29.1357C55.4337 29.1357 55.9994 29.3996 56.3766 29.8519L56.9424 31.4351L65.0517 54.8815L65.6552 56.6155C68.4086 64.5315 71.1243 72.4852 73.8777 80.4389H60.1861H60.1107Z" fill="#4D00FF"/>
</g>
</g>
<defs>
<clipPath id="clip0_524_70">
<rect width="350" height="100.002" fill="white"/>
</clipPath>
<clipPath id="clip1_524_70">
<rect width="350" height="100.002" fill="white"/>
</clipPath>
</defs>
</svg>
